<svg xmlns="http://www.w3.org/2000/svg" xmlns:xlink="http://www.w3.org/1999/xlink" viewBox="0 0 30 30"><g transform="translate(-5.012 -12.374)"><path d="M19.64 12.38c-.508.012-1.006.037-1.5.098l.405 3.232.835 6.678c.168-.02.327-.007.5-.012.258-.006.502-.018.75.014l1.23-9.908c-.726-.09-1.466-.12-2.22-.103z" id="a" fill="#f2d6f3" /><use transform="rotate(30 20 27.362)" width="744.094" height="1052.362" xlink:href="#a" opacity=".233" /><use transform="rotate(60 20 27.362)" width="744.094" height="1052.362" xlink:href="#a" opacity=".388" /><use transform="rotate(90 20 27.362)" width="744.094" height="1052.362" xlink:href="#a" opacity=".47" /><use transform="rotate(120 20 27.362)" width="744.094" height="1052.362" xlink:href="#a" opacity=".668" /><use transform="rotate(150 20 27.362)" width="744.094" height="1052.362" xlink:href="#a" opacity=".659" /><use transform="rotate(180 20 27.362)" width="744.094" height="1052.362" xlink:href="#a" opacity=".78" /><use transform="rotate(-150 20 27.362)" width="744.094" height="1052.362" xlink:href="#a" opacity=".858" /><use transform="rotate(-120 20 27.362)" width="744.094" height="1052.362" xlink:href="#a" opacity=".922" /><use transform="rotate(-90 20 27.362)" width="744.094" height="1052.362" xlink:href="#a" opacity=".961" /><use transform="rotate(-60 20 27.362)" width="744.094" height="1052.362" xlink:href="#a" /><use transform="rotate(-30 20 27.362)" width="744.094" height="1052.362" xlink:href="#a" /></g></svg>