<svg xmlns="http://www.w3.org/2000/svg" viewBox="0 0 160 197"><g transform="translate(80 -1007.4)"><circle cx="-27.5" cy="1096.9" r="107.5" /><path d="M-11.475 1082.1c-15.394 2.628-29.647 3.758-45.1 3.758v7.517h15.033v52.617h-15.033v7.517H3.558v-7.518h-15.033zM-26.508 1033.1c-1.284 0-2.538.11-3.758.323v14.798h-1.88v-14.372c-2.773.748-5.324 2.027-7.516 3.73v12.522h-1.88v-10.88c-3.797 3.745-6.15 8.903-6.15 14.594 0 11.442 9.487 20.715 21.184 20.715s21.185-9.274 21.185-20.716c0-5.697-2.346-10.86-6.15-14.608v10.893h-1.88v-12.524c-2.196-1.704-4.74-2.996-7.517-3.744v14.388h-1.88v-14.784c-1.22-.213-2.475-.337-3.758-.337z" /></g></svg>