<?xml version="1.0" encoding="UTF-8" standalone="no"?>
<!-- Created with Inkscape (http://www.inkscape.org/) -->
<svg id="svg2" xmlns:rdf="http://www.w3.org/1999/02/22-rdf-syntax-ns#" xmlns="http://www.w3.org/2000/svg" viewBox="0 0 170 197" version="1.1" xmlns:cc="http://creativecommons.org/ns#" xmlns:dc="http://purl.org/dc/elements/1.1/">
 <metadata id="metadata7">
  <rdf:RDF>
   <cc:Work rdf:about="">
    <dc:format>image/svg+xml</dc:format>
    <dc:type rdf:resource="http://purl.org/dc/dcmitype/StillImage"/>
    <dc:title/>
   </cc:Work>
  </rdf:RDF>
 </metadata>
 <g id="layer1" transform="translate(80 -1007.4)">
  <circle id="path4145" cx="-27.5" cy="1096.9" r="107.5"/>
  <path id="rect2995" d="m-11.475 1082.1c-15.394 2.6285-29.647 3.7583-45.1 3.7583v7.5168h15.033v52.617h-15.033v7.5168h15.033 30.067 15.033v-7.5168h-15.033z"/>
  <path id="path2993" d="m-26.508 1033.1c-1.2836 0-2.5377 0.1091-3.7584 0.323v14.798h-1.8792v-14.373c-2.7735 0.7476-5.324 2.0271-7.5167 3.729v12.523h-1.8792v-10.879c-3.7979 3.7444-6.1514 8.9016-6.1514 14.593 0 11.442 9.488 20.715 21.185 20.715s21.185-9.2732 21.185-20.715c0-5.6973-2.3461-10.861-6.1514-14.608v10.893h-1.8792v-12.523c-2.1951-1.704-4.7398-2.9963-7.5167-3.7437v14.388h-1.8792v-14.784c-1.2196-0.2135-2.4761-0.3376-3.7584-0.3376z"/>
 </g>
</svg>
